<?xml version="1.0" encoding="utf-8"?>
<!-- Generator: Adobe Illustrator 23.0.1, SVG Export Plug-In . SVG Version: 6.00 Build 0)  -->
<svg version="1.1" id="Layer_1" xmlns="http://www.w3.org/2000/svg" xmlns:xlink="http://www.w3.org/1999/xlink" x="0px" y="0px"
	 viewBox="0 0 168 27" style="enable-background:new 0 0 168 27;" xml:space="preserve">
<style type="text/css">
	.st0{stroke:#000000;}
	.st1{fill:url(#SVGID_1_);}
	.st2{fill:url(#SVGID_2_);}
	.st3{fill:url(#SVGID_3_);}
	.st4{fill:url(#SVGID_4_);}
	.st5{fill:url(#SVGID_5_);}
	.st6{fill:url(#SVGID_6_);}
	.st7{fill:url(#SVGID_7_);}
	.st8{fill:url(#SVGID_8_);}
	.st9{fill:url(#SVGID_9_);}
	.st10{fill:url(#SVGID_10_);}
	.st11{fill:url(#SVGID_11_);}
	.st12{fill:url(#SVGID_12_);}
	.st13{fill:url(#SVGID_13_);}
	.st14{fill:url(#SVGID_14_);}
	.st15{fill:url(#SVGID_15_);}
	.st16{fill:none;stroke:url(#SVGID_16_);stroke-width:0.5493;}
	.st17{fill:none;stroke:url(#SVGID_17_);stroke-width:0.5493;}
	.st18{fill:url(#SVGID_18_);}
</style>
<g>
	<g>
		<path class="st0" d="M32.6,22.3V6h4.2v16.3H32.6z M34.6,16v-2.6h8.1c1,0,1.8-0.2,2.4-0.7s0.9-1,0.9-1.7c0-0.7-0.3-1.3-0.9-1.8
			c-0.6-0.4-1.4-0.7-2.5-0.7h-8.1V6h8c1.6,0,2.9,0.2,4.1,0.6c1.2,0.4,2.1,1,2.7,1.7c0.6,0.7,1,1.6,1,2.6c0,1-0.3,1.9-1,2.6
			c-0.6,0.7-1.6,1.3-2.7,1.7c-1.2,0.4-2.5,0.6-4.1,0.6H34.6z"/>
		<path class="st0" d="M54.5,22.3V6h4.2v16.3H54.5z M56.2,15.6V13h8.7c0.9,0,1.6-0.2,2.1-0.6c0.5-0.4,0.8-0.9,0.8-1.6
			c0-0.7-0.3-1.2-0.8-1.6c-0.5-0.4-1.3-0.6-2.1-0.6h-8.7V6H65c1.4,0,2.7,0.2,3.8,0.6c1.1,0.4,1.9,1,2.5,1.7s0.9,1.6,0.9,2.5
			s-0.3,1.8-0.9,2.5c-0.6,0.7-1.4,1.3-2.5,1.7c-1.1,0.4-2.3,0.6-3.8,0.6H56.2z M68.3,22.3l-6-7.2l4.3-0.5l6.6,7.8H68.3z"/>
		<path class="st0" d="M81.8,6v16.3h-4.2V6H81.8z"/>
		<path class="st0" d="M95.3,22.5c-1.2,0-2.4-0.1-3.5-0.2c-1.1-0.2-2.2-0.4-3.1-0.7c-1-0.3-1.9-0.7-2.7-1.1l2.2-2.1
			c1,0.5,2.1,0.9,3.3,1.2c1.2,0.3,2.5,0.4,3.9,0.4c1.7,0,3-0.2,3.9-0.6c0.9-0.4,1.4-0.9,1.4-1.7v0c0-0.5-0.2-1-0.7-1.3
			s-1.1-0.5-1.9-0.6s-1.6-0.3-2.5-0.4c-1-0.1-1.9-0.2-2.9-0.4c-1-0.1-1.9-0.4-2.7-0.7c-0.8-0.3-1.5-0.8-2-1.3
			c-0.5-0.6-0.8-1.4-0.8-2.3v0c0-1.6,0.8-2.8,2.4-3.6s3.8-1.3,6.8-1.3c1.4,0,2.7,0.1,4.1,0.4c1.4,0.3,2.7,0.7,3.9,1.3l-2,2.2
			c-1-0.5-2-0.8-3-1c-1-0.2-2-0.3-3-0.3c-1.6,0-2.8,0.2-3.7,0.6c-0.9,0.4-1.3,0.9-1.3,1.6v0c0,0.6,0.3,1,0.8,1.3
			c0.5,0.3,1.2,0.5,2,0.7s1.7,0.3,2.7,0.4c1,0.1,1.9,0.3,2.8,0.4c0.9,0.2,1.8,0.4,2.6,0.7c0.8,0.3,1.4,0.8,1.9,1.3s0.7,1.3,0.7,2.2
			v0c0,1.5-0.8,2.7-2.5,3.6C100.6,22.1,98.3,22.5,95.3,22.5z"/>
		<path class="st0" d="M120,16.9L126.1,6h4.8v16.3h-3.9V9.9l0.2,0.7l-5.5,9.7h-3.3l-5.5-9.5l0.2-0.9v12.5h-3.9V6h4.8L120,16.9z"/>
		<path class="st0" d="M134.1,22.3L143.6,6h3l9.5,16.3h-4.5l-6.5-12.2l-6.5,12.2H134.1z M138.6,19.2v-2.6h13.3v2.6H138.6z"/>
		<path class="st0" d="M163.7,6v16.3h-4.2V6H163.7z"/>
	</g>
	<g>
		<linearGradient id="SVGID_1_" gradientUnits="userSpaceOnUse" x1="32.6133" y1="14.1553" x2="163.6631" y2="14.1553">
			<stop  offset="0.3193" style="stop-color:#5C8CFF"/>
			<stop  offset="1" style="stop-color:#4318FF"/>
		</linearGradient>
		<path class="st1" d="M32.6,22.3V6h4.2v16.3H32.6z M34.6,16v-2.6h8.1c1,0,1.8-0.2,2.4-0.7s0.9-1,0.9-1.7c0-0.7-0.3-1.3-0.9-1.8
			c-0.6-0.4-1.4-0.7-2.5-0.7h-8.1V6h8c1.6,0,2.9,0.2,4.1,0.6c1.2,0.4,2.1,1,2.7,1.7c0.6,0.7,1,1.6,1,2.6c0,1-0.3,1.9-1,2.6
			c-0.6,0.7-1.6,1.3-2.7,1.7c-1.2,0.4-2.5,0.6-4.1,0.6H34.6z"/>
		<linearGradient id="SVGID_2_" gradientUnits="userSpaceOnUse" x1="32.6133" y1="14.1553" x2="163.6631" y2="14.1553">
			<stop  offset="0.3193" style="stop-color:#5C8CFF"/>
			<stop  offset="1" style="stop-color:#4318FF"/>
		</linearGradient>
		<path class="st2" d="M54.5,22.3V6h4.2v16.3H54.5z M56.2,15.6V13h8.7c0.9,0,1.6-0.2,2.1-0.6c0.5-0.4,0.8-0.9,0.8-1.6
			c0-0.7-0.3-1.2-0.8-1.6c-0.5-0.4-1.3-0.6-2.1-0.6h-8.7V6H65c1.4,0,2.7,0.2,3.8,0.6c1.1,0.4,1.9,1,2.5,1.7s0.9,1.6,0.9,2.5
			s-0.3,1.8-0.9,2.5c-0.6,0.7-1.4,1.3-2.5,1.7c-1.1,0.4-2.3,0.6-3.8,0.6H56.2z M68.3,22.3l-6-7.2l4.3-0.5l6.6,7.8H68.3z"/>
		<linearGradient id="SVGID_3_" gradientUnits="userSpaceOnUse" x1="32.6133" y1="14.1553" x2="163.6631" y2="14.1553">
			<stop  offset="0.3193" style="stop-color:#5C8CFF"/>
			<stop  offset="1" style="stop-color:#4318FF"/>
		</linearGradient>
		<path class="st3" d="M81.8,6v16.3h-4.2V6H81.8z"/>
		<linearGradient id="SVGID_4_" gradientUnits="userSpaceOnUse" x1="32.6133" y1="14.1553" x2="163.6631" y2="14.1553">
			<stop  offset="0.3193" style="stop-color:#5C8CFF"/>
			<stop  offset="1" style="stop-color:#4318FF"/>
		</linearGradient>
		<path class="st4" d="M95.3,22.5c-1.2,0-2.4-0.1-3.5-0.2c-1.1-0.2-2.2-0.4-3.1-0.7c-1-0.3-1.9-0.7-2.7-1.1l2.2-2.1
			c1,0.5,2.1,0.9,3.3,1.2c1.2,0.3,2.5,0.4,3.9,0.4c1.7,0,3-0.2,3.9-0.6c0.9-0.4,1.4-0.9,1.4-1.7v0c0-0.5-0.2-1-0.7-1.3
			s-1.1-0.5-1.9-0.6s-1.6-0.3-2.5-0.4c-1-0.1-1.9-0.2-2.9-0.4c-1-0.1-1.9-0.4-2.7-0.7c-0.8-0.3-1.5-0.8-2-1.3
			c-0.5-0.6-0.8-1.4-0.8-2.3v0c0-1.6,0.8-2.8,2.4-3.6s3.8-1.3,6.8-1.3c1.4,0,2.7,0.1,4.1,0.4c1.4,0.3,2.7,0.7,3.9,1.3l-2,2.2
			c-1-0.5-2-0.8-3-1c-1-0.2-2-0.3-3-0.3c-1.6,0-2.8,0.2-3.7,0.6c-0.9,0.4-1.3,0.9-1.3,1.6v0c0,0.6,0.3,1,0.8,1.3
			c0.5,0.3,1.2,0.5,2,0.7s1.7,0.3,2.7,0.4c1,0.1,1.9,0.3,2.8,0.4c0.9,0.2,1.8,0.4,2.6,0.7c0.8,0.3,1.4,0.8,1.9,1.3s0.7,1.3,0.7,2.2
			v0c0,1.5-0.8,2.7-2.5,3.6C100.6,22.1,98.3,22.5,95.3,22.5z"/>
		<linearGradient id="SVGID_5_" gradientUnits="userSpaceOnUse" x1="32.6133" y1="14.1553" x2="163.6631" y2="14.1553">
			<stop  offset="0.3193" style="stop-color:#5C8CFF"/>
			<stop  offset="1" style="stop-color:#4318FF"/>
		</linearGradient>
		<path class="st5" d="M120,16.9L126.1,6h4.8v16.3h-3.9V9.9l0.2,0.7l-5.5,9.7h-3.3l-5.5-9.5l0.2-0.9v12.5h-3.9V6h4.8L120,16.9z"/>
		<linearGradient id="SVGID_6_" gradientUnits="userSpaceOnUse" x1="32.6133" y1="14.1553" x2="163.6631" y2="14.1553">
			<stop  offset="0.3193" style="stop-color:#5C8CFF"/>
			<stop  offset="1" style="stop-color:#4318FF"/>
		</linearGradient>
		<path class="st6" d="M134.1,22.3L143.6,6h3l9.5,16.3h-4.5l-6.5-12.2l-6.5,12.2H134.1z M138.6,19.2v-2.6h13.3v2.6H138.6z"/>
		<linearGradient id="SVGID_7_" gradientUnits="userSpaceOnUse" x1="32.6133" y1="14.1553" x2="163.6631" y2="14.1553">
			<stop  offset="0.3193" style="stop-color:#5C8CFF"/>
			<stop  offset="1" style="stop-color:#4318FF"/>
		</linearGradient>
		<path class="st7" d="M163.7,6v16.3h-4.2V6H163.7z"/>
	</g>
</g>
<g>
	<g>
	</g>
</g>
<g>
	
		<linearGradient id="SVGID_8_" gradientUnits="userSpaceOnUse" x1="31.3512" y1="26.2247" x2="31.6624" y2="26.2184" gradientTransform="matrix(1 0 0 -1 0 28)">
		<stop  offset="0" style="stop-color:#26A4FF"/>
		<stop  offset="1" style="stop-color:#0D9AFF"/>
	</linearGradient>
	<path class="st8" d="M31.5,1.9c0.1,0,0.2-0.1,0.2-0.2c0-0.1-0.1-0.2-0.2-0.2c-0.1,0-0.2,0.1-0.2,0.2C31.3,1.9,31.4,1.9,31.5,1.9z"
		/>
</g>
<g>
	
		<linearGradient id="SVGID_9_" gradientUnits="userSpaceOnUse" x1="5.3017" y1="22.392" x2="6.109" y2="22.3756" gradientTransform="matrix(1 0 0 -1 0 28)">
		<stop  offset="0" style="stop-color:#26A4FF"/>
		<stop  offset="1" style="stop-color:#0D9AFF"/>
	</linearGradient>
	<path class="st9" d="M5.7,6c0.2,0,0.4-0.2,0.4-0.4c0-0.2-0.2-0.4-0.4-0.4S5.3,5.4,5.3,5.6C5.3,5.8,5.5,6,5.7,6z"/>
</g>
<g>
	
		<linearGradient id="SVGID_10_" gradientUnits="userSpaceOnUse" x1="1.1195" y1="10.0236" x2="1.9269" y2="10.0074" gradientTransform="matrix(1 0 0 -1 0 28)">
		<stop  offset="0" style="stop-color:#26A4FF"/>
		<stop  offset="1" style="stop-color:#0D9AFF"/>
	</linearGradient>
	<path class="st10" d="M1.5,18.4c0.2,0,0.4-0.2,0.4-0.4c0-0.2-0.2-0.4-0.4-0.4S1.1,17.8,1.1,18C1.1,18.2,1.3,18.4,1.5,18.4z"/>
</g>
<g>
	
		<linearGradient id="SVGID_11_" gradientUnits="userSpaceOnUse" x1="25.1602" y1="6.6285" x2="25.9675" y2="6.6121" gradientTransform="matrix(1 0 0 -1 0 28)">
		<stop  offset="0" style="stop-color:#26A4FF"/>
		<stop  offset="1" style="stop-color:#0D9AFF"/>
	</linearGradient>
	<path class="st11" d="M25.5,21.8c0.2,0,0.4-0.2,0.4-0.4S25.8,21,25.5,21c-0.2,0-0.4,0.2-0.4,0.4S25.3,21.8,25.5,21.8z"/>
</g>
<g>
	
		<linearGradient id="SVGID_12_" gradientUnits="userSpaceOnUse" x1="6.3801" y1="13.5142" x2="6.6913" y2="13.508" gradientTransform="matrix(1 0 0 -1 0 28)">
		<stop  offset="0" style="stop-color:#26A4FF"/>
		<stop  offset="1" style="stop-color:#0D9AFF"/>
	</linearGradient>
	<path class="st12" d="M6.5,14.7c0.1,0,0.2-0.1,0.2-0.2s-0.1-0.2-0.2-0.2c-0.1,0-0.2,0.1-0.2,0.2S6.4,14.7,6.5,14.7z"/>
</g>
<g>
	
		<linearGradient id="SVGID_13_" gradientUnits="userSpaceOnUse" x1="12.2925" y1="26.7489" x2="12.7815" y2="26.739" gradientTransform="matrix(1 0 0 -1 0 28)">
		<stop  offset="0" style="stop-color:#26A4FF"/>
		<stop  offset="1" style="stop-color:#0D9AFF"/>
	</linearGradient>
	<path class="st13" d="M12.5,1.5c0.1,0,0.2-0.1,0.2-0.3S12.7,1,12.5,1c-0.1,0-0.2,0.1-0.2,0.3S12.4,1.5,12.5,1.5z"/>
</g>
<g>
	
		<linearGradient id="SVGID_14_" gradientUnits="userSpaceOnUse" x1="4.1976" y1="16.5612" x2="1.7608" y2="16.1573" gradientTransform="matrix(1 0 0 -1 0 28)">
		<stop  offset="0" style="stop-color:#26A4FF"/>
		<stop  offset="1" style="stop-color:#0D9AFF"/>
	</linearGradient>
	<path class="st14" d="M3.2,12.9c-0.1,0-0.2,0-0.2-0.1C2.8,12,2.7,11.9,2,12c-0.1,0-0.2-0.1-0.2-0.1c0-0.1,0-0.2,0.1-0.2
		c0.7-0.2,0.8-0.3,0.8-1.1c0-0.1,0.1-0.2,0.1-0.2c0.1,0,0.2,0,0.2,0.1c0.2,0.8,0.3,0.8,1.1,0.8c0.1,0,0.2,0.1,0.2,0.1
		c0,0.1,0,0.2-0.1,0.2c-0.7,0.2-0.8,0.3-0.8,1.1C3.4,12.8,3.3,12.9,3.2,12.9z"/>
</g>
<linearGradient id="SVGID_15_" gradientUnits="userSpaceOnUse" x1="2.6669" y1="27.404" x2="27.6076" y2="3.4225" gradientTransform="matrix(1 0 0 -1 0 28)">
	<stop  offset="0" style="stop-color:#868CFF"/>
	<stop  offset="1" style="stop-color:#4318FF"/>
</linearGradient>
<path class="st15" d="M16.6,6.2c-0.2,0.1-0.4,0.3-0.4,0.5c0,0.2,0.1,0.4,0.4,0.5c1.7,0.7,3,2,3.6,3.8c0.1,0.2,0.3,0.4,0.5,0.4
	c0.2,0,0.4-0.1,0.5-0.4c0.6-1.8,2-3.1,3.6-3.8c0.2-0.1,0.4-0.3,0.4-0.5c0-0.2-0.1-0.4-0.4-0.5c-1.7-0.7-3-2-3.6-3.8
	C21.2,2.2,21,2,20.8,2c-0.2,0-0.4,0.1-0.5,0.4C19.6,4.2,18.3,5.5,16.6,6.2z M10.9,5.6c-0.1-0.3-0.4-0.5-0.7-0.5
	c-0.3,0-0.6,0.2-0.7,0.5c-1.6,3.6-4.4,6.5-7.8,8.1c-0.3,0.1-0.4,0.4-0.4,0.7c0,0.3,0.2,0.6,0.4,0.7c3.4,1.7,6.2,4.5,7.8,8.1
	c0.1,0.3,0.4,0.5,0.7,0.5c0.3,0,0.6-0.2,0.7-0.5c1.6-3.6,4.4-6.5,7.8-8.1c0.3-0.1,0.4-0.4,0.4-0.7c0-0.3-0.2-0.6-0.4-0.7
	C15.3,12.1,12.5,9.2,10.9,5.6z M20.3,18c-0.6,1.8-2,3.1-3.6,3.8c-0.2,0.1-0.4,0.3-0.4,0.5c0,0.2,0.1,0.4,0.4,0.5
	c1.7,0.7,3,2,3.6,3.8c0.1,0.2,0.3,0.4,0.5,0.4c0.2,0,0.4-0.1,0.5-0.4c0.6-1.8,2-3.1,3.6-3.8c0.2-0.1,0.4-0.3,0.4-0.5
	c0-0.2-0.1-0.4-0.4-0.5c-1.7-0.7-3-2-3.6-3.8c-0.1-0.2-0.3-0.4-0.5-0.4C20.6,17.6,20.4,17.8,20.3,18z"/>
<linearGradient id="SVGID_16_" gradientUnits="userSpaceOnUse" x1="14.3589" y1="7.8679" x2="13.2905" y2="10.8819" gradientTransform="matrix(1 0 0 -1 0 28)">
	<stop  offset="0" style="stop-color:#3F5FFF"/>
	<stop  offset="1" style="stop-color:#3F5FFF;stop-opacity:0"/>
</linearGradient>
<path class="st16" d="M13,16.1c-7.2,2.6-12.6,5.7-12.2,7c0.4,1.3,6.6,0.2,13.7-2.4c7.2-2.6,12.6-5.7,12.2-7
	C26.3,12.4,20.1,13.5,13,16.1z"/>
<g>
	
		<linearGradient id="SVGID_17_" gradientUnits="userSpaceOnUse" x1="14.3588" y1="7.8684" x2="13.2904" y2="10.8823" gradientTransform="matrix(1 0 0 -1 0 28)">
		<stop  offset="0" style="stop-color:#1DA0FF"/>
		<stop  offset="1" style="stop-color:#199FFF;stop-opacity:0.13"/>
	</linearGradient>
	<path class="st17" d="M13,16.1c-7.2,2.6-12.6,5.7-12.2,7c0.4,1.3,6.6,0.2,13.7-2.4c7.2-2.6,12.6-5.7,12.2-7
		C26.3,12.4,20.1,13.5,13,16.1z"/>
</g>
<g>
	
		<linearGradient id="SVGID_18_" gradientUnits="userSpaceOnUse" x1="25.7174" y1="22.2116" x2="22.3361" y2="22.6081" gradientTransform="matrix(1 0 0 -1 0 28)">
		<stop  offset="0" style="stop-color:#26A4FF"/>
		<stop  offset="1" style="stop-color:#0D9AFF"/>
	</linearGradient>
	<path class="st18" d="M23.9,7.4c-0.1,0-0.2-0.1-0.2-0.2c0-1.1-0.1-1.3-1.1-1.5c-0.1,0-0.2-0.1-0.2-0.3c0-0.1,0.1-0.2,0.2-0.2
		c1,0,1.1-0.1,1.5-1.1c0-0.1,0.1-0.2,0.2-0.2c0.1,0,0.2,0.1,0.2,0.2c0,1.1,0.1,1.3,1.1,1.5c0.1,0,0.2,0.1,0.2,0.3
		c0,0.1-0.1,0.2-0.2,0.2c-1,0-1.1,0.1-1.5,1.1C24.1,7.3,24,7.4,23.9,7.4z"/>
</g>
</svg>
